<?xml version="1.0" standalone="no"?>
<!DOCTYPE svg PUBLIC "-//W3C//DTD SVG 20010904//EN"
 "http://www.w3.org/TR/2001/REC-SVG-20010904/DTD/svg10.dtd">
<svg version="1.0" xmlns="http://www.w3.org/2000/svg"
 width="564.000000pt" height="564.000000pt" viewBox="0 0 564.000000 564.000000"
 preserveAspectRatio="xMidYMid meet">
<metadata>
Created by potrace 1.11, written by Peter Selinger 2001-2013
</metadata>
<g transform="translate(0.000000,564.000000) scale(0.100000,-0.100000)"
fill="#000000" stroke="none">
<path d="M2779 5140 c-17 -10 -17 -44 0 -106 10 -35 8 -197 -3 -231 -4 -12 -8
-30 -10 -40 -9 -43 -39 -139 -48 -150 -5 -7 -7 -17 -3 -23 3 -5 1 -10 -4 -10
-6 0 -11 -4 -11 -9 0 -5 -5 -22 -12 -38 -6 -15 -12 -30 -13 -33 -19 -48 -31
-70 -38 -70 -4 0 -6 -4 -3 -9 3 -5 -2 -19 -12 -32 -9 -13 -28 -44 -42 -69 -13
-25 -28 -49 -32 -55 -4 -5 -45 -62 -89 -125 -45 -63 -91 -123 -102 -132 -11
-10 -17 -18 -13 -18 4 0 -3 -11 -16 -24 -13 -13 -43 -47 -68 -76 -59 -70 -118
-137 -154 -175 -15 -16 -44 -49 -64 -73 -20 -24 -54 -63 -77 -87 -22 -23 -63
-69 -91 -101 -28 -33 -87 -100 -130 -149 -43 -50 -95 -110 -114 -134 -19 -23
-44 -53 -55 -65 -11 -12 -38 -45 -60 -74 -21 -29 -43 -52 -47 -52 -4 0 -8 -5
-8 -11 0 -6 -6 -17 -12 -24 -26 -29 -36 -42 -48 -65 -7 -13 -17 -29 -22 -34
-5 -6 -23 -33 -40 -61 -18 -27 -36 -53 -41 -56 -5 -3 -9 -9 -9 -12 0 -19 -12
-47 -20 -47 -5 0 -6 -4 -3 -10 3 -5 2 -10 -3 -10 -10 0 -58 -100 -54 -112 1
-4 -2 -8 -7 -8 -5 0 -12 -13 -16 -30 -4 -16 -10 -30 -13 -30 -6 0 -26 -50 -35
-85 -1 -5 -6 -16 -10 -23 -5 -6 -6 -12 -2 -12 3 0 1 -9 -5 -21 -6 -11 -13 -28
-15 -37 -3 -9 -15 -58 -28 -107 -13 -50 -23 -100 -22 -113 1 -12 -2 -22 -6
-22 -4 0 -6 -16 -5 -35 2 -20 0 -38 -4 -40 -10 -6 -5 -259 5 -300 4 -16 8 -41
9 -55 2 -14 6 -32 9 -40 4 -8 9 -26 11 -40 18 -94 121 -309 181 -377 5 -6 21
-26 35 -44 14 -18 46 -54 73 -81 26 -26 47 -52 47 -58 0 -5 5 -10 11 -10 6 0
36 -21 67 -46 104 -83 148 -114 162 -114 5 0 10 -4 10 -10 0 -5 5 -10 11 -10
6 0 23 -8 37 -18 15 -11 56 -34 92 -52 36 -17 76 -38 90 -45 52 -26 66 6 23
52 -41 43 -63 72 -63 83 0 6 -3 10 -7 10 -10 0 -63 93 -69 120 -2 11 -7 30
-10 43 -11 41 -11 162 0 169 7 5 6 8 -2 8 -8 0 -10 5 -5 13 4 6 8 21 9 32 3
47 15 99 25 112 6 7 9 13 6 13 -18 0 77 213 138 311 61 97 100 154 110 161 6
5 6 8 0 8 -6 0 -6 3 0 8 6 4 28 32 50 62 58 80 57 80 91 116 18 19 30 34 27
34 -3 0 15 24 39 52 23 29 52 64 63 77 11 13 30 34 43 47 12 13 22 25 22 28 0
3 15 21 33 40 17 18 46 51 64 72 17 22 48 56 67 77 20 20 36 39 36 42 0 2 10
15 23 27 12 13 47 52 77 87 30 34 66 75 80 90 45 49 112 126 210 241 12 14 31
38 43 53 12 16 27 34 32 40 6 7 26 32 45 57 19 25 38 47 42 48 5 2 8 9 8 16 0
7 9 21 20 31 11 10 20 23 20 29 0 7 9 18 19 26 11 7 18 17 15 22 -3 4 2 11 10
14 9 3 16 13 16 20 0 8 8 24 18 34 10 11 47 77 82 147 70 143 71 146 96 223 9
30 19 62 22 70 3 8 7 22 8 30 2 8 8 35 15 60 31 121 30 341 -1 400 -6 11 -9
20 -6 20 13 0 -33 129 -75 213 -10 20 -16 37 -13 37 2 0 0 6 -6 13 -18 20
-100 158 -100 167 0 5 -6 13 -13 17 -6 4 -39 41 -71 82 -63 79 -228 246 -286
290 -19 14 -39 32 -43 38 -7 11 -60 44 -69 43 -2 0 -10 -5 -19 -10z"/>
<path d="M3710 3632 c-8 -3 -20 -10 -26 -16 -11 -12 -12 -17 -17 -76 -1 -19
-5 -39 -8 -45 -7 -11 -20 -64 -17 -67 1 -2 -5 -14 -12 -28 -8 -14 -14 -29 -15
-33 0 -4 -7 -12 -15 -17 -8 -5 -12 -10 -7 -10 4 0 -3 -19 -15 -42 -12 -24 -22
-45 -23 -48 0 -3 -10 -21 -23 -41 -12 -20 -22 -40 -22 -44 0 -4 -11 -18 -25
-31 -14 -13 -25 -30 -25 -38 0 -8 -10 -22 -22 -30 -12 -9 -19 -16 -15 -16 4 0
-1 -8 -10 -18 -10 -10 -25 -29 -33 -42 -8 -12 -21 -28 -27 -36 -7 -7 -13 -17
-13 -23 0 -6 -9 -15 -20 -21 -11 -6 -20 -15 -20 -21 0 -11 -10 -23 -52 -70
-16 -16 -28 -33 -28 -37 0 -8 -34 -52 -75 -98 -11 -12 -27 -32 -35 -45 -8 -13
-31 -40 -51 -60 -20 -21 -34 -40 -31 -43 3 -3 -3 -8 -12 -12 -9 -3 -13 -10
-10 -15 3 -5 1 -9 -5 -9 -5 0 -13 -9 -16 -20 -3 -11 -13 -20 -21 -20 -8 0 -14
-7 -14 -15 0 -7 -6 -18 -13 -22 -8 -4 -27 -26 -43 -48 -35 -47 -65 -83 -116
-137 -21 -22 -38 -44 -38 -49 0 -6 -4 -7 -10 -4 -5 3 -10 1 -10 -5 0 -6 -26
-38 -58 -71 -32 -32 -57 -59 -55 -59 2 0 -8 -11 -22 -25 -14 -14 -25 -30 -25
-35 0 -6 -5 -10 -11 -10 -10 0 -39 -24 -39 -33 0 -5 -36 -47 -92 -108 -21 -22
-38 -45 -38 -50 0 -5 -5 -9 -10 -9 -6 0 -15 -11 -20 -25 -5 -14 -13 -25 -18
-25 -5 0 -16 -16 -25 -35 -9 -20 -24 -38 -32 -41 -8 -4 -15 -11 -15 -18 -1 -6
-16 -33 -35 -61 -18 -27 -31 -53 -29 -57 3 -4 -1 -8 -8 -8 -10 -1 -71 -109
-73 -130 -1 -3 -9 -20 -18 -37 -10 -18 -14 -33 -10 -33 5 0 1 -6 -7 -13 -8 -7
-16 -21 -17 -32 0 -11 -5 -33 -9 -50 -4 -16 -8 -42 -8 -57 -1 -16 -4 -28 -7
-28 -9 0 -8 -143 1 -155 4 -5 8 -17 8 -25 1 -39 43 -160 54 -160 5 0 8 -8 8
-18 0 -9 9 -23 20 -30 11 -7 20 -17 20 -22 0 -11 60 -69 73 -70 4 0 16 -8 26
-17 39 -36 50 -43 66 -43 9 0 23 -7 32 -15 8 -8 19 -13 24 -10 5 4 9 1 9 -4 0
-6 8 -11 18 -11 10 0 22 -4 27 -8 13 -10 71 -28 115 -36 19 -3 46 -9 60 -12
14 -3 62 -7 107 -7 46 -1 83 -6 83 -11 0 -5 7 -3 15 4 8 7 15 8 15 3 0 -11 29
-11 46 -1 12 8 34 6 50 -5 6 -3 14 -4 18 0 3 4 43 8 89 10 84 4 152 9 152 13
0 2 21 6 75 14 48 7 83 17 98 29 7 5 15 7 18 4 3 -3 41 7 84 23 43 16 81 26
83 23 3 -2 17 3 31 12 14 9 27 16 31 16 3 -1 21 6 41 14 20 8 40 15 44 15 12
0 95 44 98 53 2 4 10 7 17 7 7 0 43 16 79 35 36 19 66 32 66 28 0 -4 7 3 16
15 8 12 20 22 25 22 15 0 200 141 242 185 88 91 132 143 166 195 20 30 39 57
44 58 4 2 7 12 7 23 0 11 7 22 15 25 8 4 15 14 15 23 0 9 9 31 20 49 11 18 18
37 15 43 -4 5 -1 9 4 9 6 0 11 8 11 18 0 10 3 22 7 26 7 6 13 29 15 54 1 6 5
12 9 12 4 0 7 10 7 23 0 25 5 47 13 62 4 6 5 18 4 28 -2 9 0 17 4 17 4 0 7 20
6 45 -2 25 0 45 4 45 4 0 7 67 7 149 0 83 -3 148 -7 145 -4 -2 -10 0 -14 6 -8
13 -45 -6 -45 -23 0 -8 -11 -37 -25 -65 -14 -29 -25 -56 -25 -61 0 -5 -7 -12
-16 -15 -9 -4 -14 -9 -11 -12 7 -8 -31 -86 -47 -96 -6 -4 -7 -8 -2 -8 5 0 1
-9 -9 -20 -10 -11 -15 -20 -11 -20 4 0 -3 -13 -16 -29 -48 -60 -58 -75 -58
-88 0 -7 -4 -13 -8 -13 -5 0 -23 -21 -40 -47 -65 -101 -187 -233 -254 -279
-24 -15 -52 -36 -63 -45 -11 -10 -33 -19 -50 -21 -16 -2 -36 -9 -43 -16 -8 -7
-17 -10 -22 -7 -5 3 -11 1 -15 -5 -8 -12 -99 -13 -123 -1 -9 5 -30 15 -47 22
-34 16 -88 66 -94 89 -8 26 -3 90 7 103 5 7 13 23 17 37 4 14 19 35 32 48 13
12 21 22 18 22 -4 0 0 6 7 14 7 8 26 33 42 55 17 23 33 41 38 41 4 0 8 5 8 10
0 6 5 16 10 23 6 7 36 46 68 87 31 41 62 81 69 88 7 7 13 18 13 23 0 6 4 7 10
4 6 -3 7 1 4 9 -4 9 1 18 10 22 9 3 16 12 16 20 0 8 3 14 8 14 4 0 23 25 42
55 19 30 38 55 43 55 4 0 7 6 7 13 0 7 8 22 18 33 9 11 18 26 20 34 2 8 7 17
12 20 5 3 14 17 19 30 6 14 23 43 36 65 14 22 28 47 31 55 3 8 10 24 15 35 24
54 35 86 44 130 2 11 10 45 18 75 14 60 16 234 2 290 -10 39 -9 36 -19 71 -4
14 -8 32 -10 40 -4 23 -45 107 -56 114 -5 3 -10 15 -10 26 0 10 -4 19 -10 19
-5 0 -12 11 -16 25 -3 14 -10 25 -15 25 -5 0 -9 9 -9 20 0 11 -4 20 -10 20 -5
0 -10 5 -10 10 0 6 -5 16 -10 23 -6 7 -29 41 -53 76 -23 36 -46 71 -52 80 -5
8 -18 24 -27 35 -10 11 -18 26 -18 33 0 7 -6 13 -13 13 -7 0 -21 17 -32 37
-19 35 -27 45 -87 112 -16 16 -28 34 -28 39 0 13 -21 20 -40 14z"/>
</g>
</svg>
