<?xml version="1.0" standalone="no"?>
<!DOCTYPE svg PUBLIC "-//W3C//DTD SVG 20010904//EN"
 "http://www.w3.org/TR/2001/REC-SVG-20010904/DTD/svg10.dtd">
<svg version="1.0" xmlns="http://www.w3.org/2000/svg"
 width="1600.000000pt" height="1600.000000pt" viewBox="0 0 1600.000000 1600.000000"
 preserveAspectRatio="xMidYMid meet">
<metadata>
Created by potrace 1.14, written by Peter Selinger 2001-2017
</metadata>
<g transform="translate(0.000000,1600.000000) scale(0.100000,-0.100000)"
fill="#000000" stroke="none">
<path d="M7555 15704 c-383 -27 -606 -53 -885 -100 -1340 -226 -2604 -808
-3645 -1675 -357 -298 -717 -659 -1012 -1015 -937 -1132 -1545 -2553 -1712
-4004 -41 -356 -46 -458 -46 -910 0 -452 5 -554 46 -910 153 -1331 677 -2638
1494 -3725 352 -469 789 -927 1250 -1311 854 -710 1915 -1250 2991 -1523 460
-116 827 -178 1334 -223 196 -18 984 -18 1180 0 254 23 489 52 695 87 1452
247 2785 891 3880 1876 148 133 471 457 596 599 724 815 1273 1784 1598 2817
172 550 276 1089 333 1723 18 196 18 984 0 1180 -80 899 -263 1647 -593 2427
-322 761 -782 1488 -1337 2113 -115 130 -422 440 -562 568 -784 718 -1738
1278 -2755 1617 -582 194 -1117 306 -1780 371 -150 14 -934 28 -1070 18z m34
-1042 c338 -224 677 -499 939 -761 636 -637 998 -1330 1094 -2096 18 -147 15
-522 -6 -675 -65 -481 -246 -932 -524 -1308 -40 -55 -142 -174 -227 -266 -84
-93 -179 -205 -209 -251 -223 -331 -254 -701 -84 -989 86 -146 272 -306 436
-376 219 -93 477 -100 713 -19 329 113 600 384 717 719 50 144 65 258 58 433
-23 592 -19 780 26 1041 122 720 530 1168 1213 1329 119 29 294 57 349 57 l35
0 -69 -142 c-161 -338 -231 -611 -231 -911 0 -272 58 -504 195 -784 88 -179
158 -297 376 -638 234 -365 311 -494 415 -700 187 -368 304 -728 359 -1110 53
-364 46 -843 -19 -1255 -175 -1106 -719 -2141 -1500 -2853 -610 -557 -1316
-929 -2165 -1142 -93 -24 -333 -75 -349 -75 -3 0 32 22 79 48 491 276 761 687
835 1272 24 183 16 490 -15 635 -72 336 -240 635 -465 827 -385 328 -857 400
-1437 218 -69 -21 -159 -46 -199 -54 -670 -142 -1253 181 -1504 834 -168 435
-172 1001 -10 1585 13 49 23 91 21 93 -8 7 -281 -266 -385 -384 -510 -580
-827 -1249 -937 -1979 -32 -207 -44 -614 -25 -823 90 -991 584 -1850 1359
-2363 56 -37 125 -80 152 -95 28 -15 48 -29 47 -31 -12 -11 -419 101 -672 184
-959 316 -1724 808 -2246 1446 -489 597 -772 1309 -839 2112 -13 158 -13 531
1 692 69 843 362 1642 832 2271 411 551 877 998 1762 1692 719 564 918 731
1184 993 252 249 413 444 547 663 475 776 507 1670 103 2888 -49 148 -89 271
-89 272 0 6 210 -125 359 -224z"/>
</g>
</svg>
