<?xml version="1.0" standalone="no"?>
<!DOCTYPE svg PUBLIC "-//W3C//DTD SVG 20010904//EN"
 "http://www.w3.org/TR/2001/REC-SVG-20010904/DTD/svg10.dtd">
<svg version="1.0" xmlns="http://www.w3.org/2000/svg"
 width="1200.000000pt" height="1200.000000pt" viewBox="0 0 1200.000000 1200.000000"
 preserveAspectRatio="xMidYMid meet">
<metadata>
Created by potrace 1.11, written by Peter Selinger 2001-2013
</metadata>
<g transform="translate(0.000000,1200.000000) scale(0.100000,-0.100000)"
fill="#000000" stroke="none">
<path d="M6335 11551 c-11 -5 -29 -19 -40 -31 -19 -21 -20 -36 -20 -359 0
-185 -4 -358 -9 -386 -27 -161 -108 -295 -210 -347 -84 -43 -119 -50 -266 -54
-84 -2 -154 -9 -167 -15 -12 -7 -34 -30 -49 -52 -27 -41 -667 -1093 -691
-1137 -8 -14 -26 -44 -41 -68 -88 -139 -331 -548 -397 -667 -43 -77 -86 -153
-95 -170 -9 -16 -32 -57 -50 -90 -18 -33 -35 -76 -37 -96 -7 -61 91 -388 166
-553 53 -116 64 -139 98 -200 19 -32 31 -61 29 -64 -3 -2 -218 -75 -478 -162
-402 -133 -478 -161 -503 -187 -16 -16 -61 -81 -98 -144 -38 -63 -74 -123 -80
-134 -7 -10 -27 -41 -44 -67 -18 -26 -33 -50 -33 -52 0 -3 -31 -55 -70 -116
-38 -61 -70 -113 -70 -115 0 -3 -19 -35 -43 -72 -24 -38 -113 -183 -199 -323
-374 -614 -442 -727 -458 -755 -10 -16 -82 -138 -162 -270 -128 -213 -309
-517 -366 -615 -295 -511 -382 -672 -384 -708 -3 -44 14 -92 40 -111 26 -18
425 -221 436 -221 2 0 37 -15 78 -34 75 -34 413 -172 458 -187 14 -4 95 -32
181 -62 l157 -53 -147 -67 c-80 -37 -171 -77 -201 -91 -75 -32 -93 -55 -94
-115 -1 -60 14 -79 104 -128 36 -20 90 -51 120 -68 30 -18 75 -44 100 -57 74
-41 396 -230 525 -308 66 -40 137 -82 157 -94 51 -29 422 -259 428 -266 3 -3
14 -10 25 -16 48 -27 201 -126 215 -139 9 -8 20 -15 23 -15 10 0 162 -103 165
-112 2 -4 8 -8 13 -8 5 0 47 -26 92 -57 45 -31 111 -77 147 -101 83 -58 191
-134 210 -149 8 -6 62 -47 120 -89 58 -43 111 -84 118 -91 7 -7 16 -13 20 -13
4 0 21 -13 37 -28 17 -15 48 -41 70 -57 22 -17 49 -39 61 -50 11 -11 43 -38
69 -60 160 -131 321 -296 418 -427 61 -83 81 -95 144 -85 45 8 65 26 104 96
33 58 102 157 141 203 13 14 38 44 56 66 17 22 56 65 85 95 28 30 70 75 93 99
55 57 223 217 314 298 40 36 85 76 100 90 15 14 40 36 56 49 38 31 158 134
164 141 3 3 21 17 40 32 19 14 44 34 55 45 11 10 52 43 90 73 39 30 72 57 75
60 3 4 84 68 180 143 263 206 281 221 371 288 46 35 89 67 94 72 6 4 91 69
190 143 99 75 191 144 205 154 14 10 135 100 270 200 135 100 252 187 260 193
8 7 71 55 140 107 69 52 134 102 145 111 66 56 218 177 265 212 276 208 476
444 608 717 53 109 112 274 127 351 3 13 10 48 16 76 5 29 12 65 14 80 2 16 4
28 5 28 11 0 19 337 10 435 -39 428 -187 877 -445 1355 -82 153 -271 456 -287
463 -5 2 -8 8 -8 13 0 19 -287 406 -375 505 -5 7 -26 31 -45 55 -126 157 -159
184 -222 184 -99 0 -132 -89 -75 -200 72 -141 104 -367 83 -605 -30 -357 -232
-737 -571 -1073 -100 -100 -161 -156 -220 -202 -21 -16 -43 -34 -49 -40 -95
-83 -100 -85 -316 -85 -219 0 -461 26 -685 74 -103 22 -206 49 -210 55 -2 5
15 14 38 21 23 8 47 17 52 21 6 3 21 10 35 14 14 4 68 24 120 44 52 21 104 42
115 46 11 4 25 9 31 10 6 2 27 10 45 18 19 8 77 32 129 52 140 54 270 130 400
234 48 38 209 197 250 246 77 93 183 250 232 340 14 28 38 73 53 100 60 114
160 393 191 535 4 19 9 40 10 45 14 56 42 207 49 270 3 28 8 61 11 75 12 51
11 476 -1 580 -14 113 -23 176 -30 200 -2 8 -6 33 -10 55 -3 22 -7 47 -10 55
-2 8 -6 26 -9 40 -25 130 -88 333 -152 491 -36 91 -158 342 -197 404 -43 70
-180 277 -190 287 -7 7 -24 29 -37 48 -68 98 -194 243 -336 384 -203 204 -245
236 -305 232 -83 -6 -115 -77 -81 -182 28 -87 49 -167 67 -254 1 -3 5 -30 9
-60 5 -30 10 -64 12 -75 6 -29 17 -202 17 -255 -2 -208 -1 -200 -30 -211 -43
-17 -203 -19 -275 -4 -35 8 -86 23 -113 35 -67 29 -135 63 -135 68 0 2 27 47
60 100 108 171 178 336 220 517 36 150 43 211 43 365 1 156 -5 207 -43 370
-11 47 -22 95 -25 108 -21 90 -111 300 -189 437 -36 65 -144 231 -167 258 -5
7 -28 37 -50 67 -57 79 -114 105 -174 81z"/>
</g>
</svg>
